<?xml version="1.0" encoding="utf-8"?>
<!-- Generator: Adobe Illustrator 14.0.0, SVG Export Plug-In . SVG Version: 6.00 Build 43363)  -->
<!DOCTYPE svg PUBLIC "-//W3C//DTD SVG 1.1//EN" "http://www.w3.org/Graphics/SVG/1.1/DTD/svg11.dtd">
<svg version="1.1" xmlns="http://www.w3.org/2000/svg" xmlns:xlink="http://www.w3.org/1999/xlink" x="0px" y="0px" width="357.5px"
	 height="200.5px" viewBox="0 0 357.5 200.5" enable-background="new 0 0 357.5 200.5" xml:space="preserve">
<g id="guidelines" display="none">
	<line display="inline" fill="none" stroke="#FF2D00" x1="160.833" y1="21.833" x2="126.958" y2="159.208"/>
	<line display="inline" fill="none" stroke="#FF2D00" x1="181.25" y1="28.875" x2="147.375" y2="166.25"/>
</g>
<g id="Layer_3">
	<path fill="#380D09" d="M63.25,132.125l-13.25,12c0,0,6.5,8.125,15.125,13s13.381,4.508,23.065,4.379
		c9.31,0,18.81-1.754,26.435-8.504s9.066-8.6,9.033-17.112c-0.016-3.994-1.075-12.813-5.908-18.513
		c-5.466-6.445-14.781-9.566-14.781-9.566s-28.53-7.155-25.594-17.059c1.232-4.156,7.818-5.726,14.292-4.583
		c8.192,1.444,16.474,6.371,16.474,6.371l11.577-11.33c0,0-5.274-6.198-13.468-10.208c-6.064-2.967-14.428-4.059-19.783-4.078
		C73.875,66.875,58.132,78.119,56.25,89.75c-1.375,8.5,1.383,15.676,7.625,21.125c7.875,6.875,13.478,7.771,13.478,7.771
		s25.123,6.469,25.123,14.286s-6.101,10.692-15.851,10.817S63.25,132.125,63.25,132.125z"/>
	<path fill="#380D09" d="M244.342,71.15l0.2,18.199h10.4l0.1,53.9c0,0,1.801,6.2,6.5,10.8c6.065,5.937,12.4,7.454,12.4,7.454h20.399
		l0.101-18.554l-11-0.1c0,0-2.401,0.101-5.1-2.5c-2.801-2.7-2.7-6.2-2.7-6.2l0.2-44.9h20l0.1-18.2l-20-0.1l-0.2-35.2h-20.8l0.2,35.4
		H244.342z"/>
	<path fill="#380D09" d="M202.5,75.5c-12.529-2.767-25.25-1.375-33.375,3.375L179.75,35.75l-21.188-5.188L128.438,152l21,6.062
		l2.896-11.896C158.5,157.833,165.527,163.446,179,166.5c25,5.667,47.312-11.762,53.334-38.667
		C237.5,104.75,221.75,79.75,202.5,75.5z M208.59,142.761l-30.152,8.302l-22.49-22.776l7.666-31.077l30.155-8.302l22.487,22.776
		L208.59,142.761z"/>
</g>
</svg>
