<?xml version="1.0" encoding="utf-8"?>
<!-- Generator: Adobe Illustrator 14.0.0, SVG Export Plug-In . SVG Version: 6.00 Build 43363)  -->
<!DOCTYPE svg PUBLIC "-//W3C//DTD SVG 1.1//EN" "http://www.w3.org/Graphics/SVG/1.1/DTD/svg11.dtd">
<svg version="1.1" id="Layer_2" xmlns="http://www.w3.org/2000/svg" xmlns:xlink="http://www.w3.org/1999/xlink" x="0px" y="0px"
	 width="100px" height="60px" viewBox="0 0 100 60" enable-background="new 0 0 100 60" xml:space="preserve">
<path d="M4.552,45.529c1.296-1.728,3.816-1.944,5.4-0.576c1.873,1.584,5.113,3.24,7.921,3.168c1.944,0,3.744-0.648,4.896-1.368
	c1.008-0.864,1.296-1.584,1.296-2.16c0-0.36-0.072-0.504-0.216-0.72c-0.072-0.216-0.36-0.504-0.936-0.864
	c-1.008-0.72-3.168-1.512-5.761-2.017h-0.072c-2.232-0.432-4.393-1.008-6.265-1.872c-1.944-0.936-3.672-2.232-4.968-4.176
	c-0.792-1.296-1.224-2.88-1.224-4.536c0-3.312,1.872-6.121,4.248-7.921c2.521-1.728,5.545-2.664,8.857-2.664
	c4.968,0,8.497,2.376,10.801,3.96c1.729,1.152,2.232,3.528,1.152,5.329c-1.152,1.728-3.528,2.232-5.329,1.008
	c-2.304-1.512-4.32-2.665-6.625-2.665c-1.8,0-3.384,0.576-4.32,1.296c-0.936,0.648-1.152,1.296-1.152,1.656
	c0,0.288,0,0.36,0.144,0.576c0.072,0.144,0.288,0.432,0.792,0.72c0.936,0.648,2.808,1.296,5.256,1.728l0.072,0.072h0.072
	c2.376,0.432,4.608,1.08,6.696,2.088c1.944,0.864,3.889,2.232,5.113,4.249c0.864,1.44,1.368,3.096,1.368,4.752
	c0,3.528-1.944,6.481-4.537,8.352c-2.592,1.801-5.833,2.881-9.361,2.881c-5.616-0.072-9.937-2.664-12.817-4.969
	C3.472,49.561,3.256,47.113,4.552,45.529z"/>
<path d="M36.469,34.679L41.42,6.597c0.363-2.057,2.377-3.529,4.504-3.154c2.198,0.388,3.588,2.461,3.225,4.518l-2.351,13.331
	c2.949-1.381,6.553-1.915,10.027-1.303c9.573,1.688,15.806,11.122,14.093,20.837c-1.688,9.575-10.778,16.34-20.345,14.62
	c-9.711-1.748-15.857-10.986-14.142-20.711C36.449,34.641,36.415,35.016,36.469,34.679 M45.294,30.782L43.429,41.36l8.229,6.904
	l10.094-3.673l1.865-10.579l-8.229-6.905L45.294,30.782z"/>
<path d="M90.5,48.511c2.16,0,4.104,1.257,4.104,3.489c0,2.16-1.944,3.838-4.104,3.838l-2.721-0.012c-4.393,0-7.992-3.6-7.992-7.993
	v-20.09h-2.369c-2.232,0-3.96-1.8-3.96-3.96c0-2.232,1.728-3.96,3.96-3.96h2.369V9.382c0-2.232,1.8-3.96,4.032-3.96
	c2.231,0,3.96,1.728,3.96,3.96v10.441h4.138c2.16,0,4.033,1.728,4.033,3.96c0,2.16-1.873,3.96-4.033,3.96h-4.138l0.012,15.34
	l-0.042,2.958c0.005,1.68,0.705,2.458,2.031,2.458"/>
</svg>
